<?xml version="1.0" standalone="no"?>
<!DOCTYPE svg PUBLIC "-//W3C//DTD SVG 1.1//EN" "http://www.w3.org/Graphics/SVG/1.1/DTD/svg11.dtd" >
<svg>
<metadata>
Created by FontForge 20110222 at Mon Mar  7 13:33:08 2011
 By www-data
Copyright (c) 2010 by Marco Mller. All rights reserved.
</metadata>
<defs>
<font id="Melbourne-Bold" horiz-adv-x="421" >
  <font-face 
    font-family="Melbourne"
    font-weight="700"
    font-stretch="normal"
    units-per-em="1000"
    panose-1="2 0 0 0 0 0 0 0 0 0"
    ascent="750"
    descent="-250"
    x-height="500"
    cap-height="700"
    bbox="-10 -215 732.001 870"
    underline-thickness="50"
    underline-position="-50"
    unicode-range="U+0020-20AC"
  />
    <missing-glyph />
    <glyph glyph-name="space" unicode=" " horiz-adv-x="210" 
 />
    <glyph glyph-name="f" unicode="f" horiz-adv-x="317" 
d="M114 540c0 99 52 160 160 160h20c17 0 29 -13 29 -28v-29c0 -15 -12 -27 -29 -27h-20c-64 0 -69 -38 -69 -76v-49h83c17 0 29 -13 29 -28v-29c0 -15 -12 -27 -29 -27h-83v-378c0 -17 -13 -29 -28 -29h-36c-15 0 -27 12 -27 29v378h-20c-17 0 -29 12 -29 27v29
c0 15 12 28 29 28h20v49z" />
    <glyph glyph-name="g" unicode="g" horiz-adv-x="482" 
d="M226 507h78c35 0 45 5 54 13l14 13c11 12 28 11 40 1l21 -19c11 -11 12 -28 0 -40l-9 -11c-14 -17 -35 -31 -59 -36c31 -30 32 -64 32 -104v-27c0 -88 -72 -159 -171 -159c-21 0 -44 6 -54 11l-32 -40c-13 -17 -4 -24 19 -23l155 5c70 3 112 -46 112 -122
c0 -50 -29 -184 -180 -184c-111 0 -179 47 -179 115c0 62 30 111 30 111c-31 3 -50 27 -53 51c-3 22 8 54 27 78l35 44c-43 43 -44 87 -44 119v21c0 107 57 183 164 183zM229 423c-57 0 -76 -53 -76 -99v-26c0 -34 23 -76 73 -76c42 0 80 33 80 76v26c0 52 -15 99 -77 99z
M292 10l-110 -4c-19 -26 -30 -55 -30 -88s36 -51 85 -51c55 0 105 34 103 96c-1 32 -19 48 -48 47z" />
    <glyph glyph-name="h" unicode="h" horiz-adv-x="460" 
d="M102 700h37c15 0 27 -12 27 -29v-206c4 11 31 42 93 42c94 0 149 -59 149 -175v-303c0 -17 -12 -29 -27 -29h-37c-15 0 -27 12 -27 29v310c0 49 -17 84 -71 84c-59 0 -80 -44 -80 -84v-310c0 -17 -12 -29 -27 -29h-37c-15 0 -27 12 -27 29v642c0 17 12 29 27 29z" />
    <glyph glyph-name="i" unicode="i" horiz-adv-x="221" 
d="M106 500h37c15 0 27 -12 27 -29v-442c0 -17 -13 -29 -28 -29h-36c-15 0 -27 12 -27 29v442c0 17 12 29 27 29zM148 700c15 0 27 -12 27 -29v-52c0 -17 -12 -29 -27 -29h-46c-15 0 -27 12 -27 29v52c0 17 12 29 27 29h46z" />
    <glyph glyph-name="j" unicode="j" horiz-adv-x="247" 
d="M132 700h46c15 0 27 -12 27 -29v-52c0 -17 -12 -29 -27 -29h-46c-15 0 -27 12 -27 29v52c0 17 12 29 27 29zM136 500h36c15 0 27 -12 27 -29v-487c0 -99 -52 -160 -160 -160h-20c-17 0 -29 13 -29 28v29c0 15 12 27 29 27h20c64 0 69 38 69 76v487c0 17 13 29 28 29z" />
    <glyph glyph-name="k" unicode="k" horiz-adv-x="419" 
d="M97 700h36c15 0 28 -12 28 -29v-340l124 149c15 20 31 20 31 20h54s37 -1 9 -38l-140 -168l77 -158c20 -37 38 -52 62 -52h15c17 0 29 -13 29 -28v-29c0 -15 -12 -27 -29 -27h-20c-57 0 -96 27 -136 100l-61 129l-15 -17v-183c0 -17 -13 -29 -28 -29h-36
c-15 0 -27 12 -27 29v642c0 17 12 29 27 29z" />
    <glyph glyph-name="l" unicode="l" horiz-adv-x="258" 
d="M99 700h36c15 0 28 -12 28 -29v-518c0 -38 5 -76 69 -76h20c17 0 29 -12 29 -27v-29c0 -15 -12 -28 -29 -28h-20c-108 0 -160 61 -160 160v518c0 17 12 29 27 29z" />
    <glyph glyph-name="m" unicode="m" horiz-adv-x="666" 
d="M97 500h37c15 0 27 -12 27 -29v-7c24 40 72 43 92 43c28 0 63 -11 88 -48c26 40 76 48 108 48c79 0 149 -35 149 -175v-303c0 -29 -28 -29 -28 -29h-34s-29 0 -29 29v303c0 49 -8 91 -58 91c-28 0 -62 -29 -62 -62v-332c0 -29 -28 -29 -28 -29h-35s-28 0 -28 29v332
c0 27 -14 62 -57 62c-58 0 -78 -51 -78 -91v-303c0 -29 -29 -29 -29 -29h-34s-28 0 -28 29v442c0 17 12 29 27 29z" />
    <glyph glyph-name="n" unicode="n" horiz-adv-x="456" 
d="M97 500h37c15 0 27 -12 27 -29v-6c9 14 44 42 93 42c94 0 149 -59 149 -175v-303c0 -17 -12 -29 -27 -29h-37c-15 0 -27 12 -27 29v310c0 49 -17 84 -71 84c-59 0 -80 -44 -80 -84v-310c0 -17 -12 -29 -27 -29h-37c-15 0 -27 12 -27 29v442c0 17 12 29 27 29z" />
    <glyph glyph-name="o" unicode="o" horiz-adv-x="422" 
d="M218 423c-62 0 -77 -46 -77 -101v-150c0 -48 14 -95 76 -95c64 0 78 47 78 95v150c0 55 -15 101 -77 101zM219 -7h-2c-100 0 -167 65 -167 179v150c0 132 68 185 168 185s168 -53 168 -185v-150c0 -114 -67 -179 -167 -179z" />
    <glyph glyph-name="p" unicode="p" 
d="M72 500h37c15 0 27 -12 27 -29v-6c14 21 50 42 92 42c94 0 153 -59 153 -175v-169c0 -96 -62 -170 -149 -170c-37 0 -81 16 -98 45v-221c0 -17 -12 -29 -27 -29h-35c-15 0 -27 12 -27 29v654c0 17 12 29 27 29zM215 423c-59 0 -80 -44 -80 -84v-181c0 -47 33 -81 84 -81
c42 0 71 25 71 81v181c0 49 -21 84 -75 84z" />
    <glyph glyph-name="q" unicode="q" horiz-adv-x="441" 
d="M141 338v-176c0 -61 34 -85 65 -85c58 0 88 50 88 96v165c0 66 -44 85 -80 85c-49 0 -73 -27 -73 -85zM50 162v169c0 97 43 176 153 176c26 0 70 -12 91 -42v13c0 29 28 29 28 29h37c15 0 26 -12 26 -29v-661c0 -17 -12 -29 -27 -29h-35c-15 0 -27 12 -27 29v221
c-18 -27 -59 -45 -98 -45c-70 0 -148 58 -148 169z" />
    <glyph glyph-name="r" unicode="r" horiz-adv-x="266" 
d="M267 507c17 0 29 -12 29 -27v-29c0 -15 -12 -28 -29 -28c-90 0 -106 -44 -106 -84v-310c0 -17 -12 -29 -27 -29h-37c-15 0 -27 12 -27 29v442c0 17 12 29 27 29h37c15 0 27 -12 27 -29v-6c31 31 47 42 106 42z" />
    <glyph glyph-name="s" unicode="s" horiz-adv-x="416" 
d="M145 152c0 -37 14 -75 72 -75c39 0 60 29 60 58c0 25 -8 44 -44 65l-82 48c-59 35 -76 87 -76 123c0 66 49 136 141 136c64 0 136 -22 148 -112c4 -30 -23 -34 -23 -34l-29 -4c-13 -1 -30 7 -33 27c-6 36 -38 42 -60 42c-26 0 -57 -22 -57 -55c0 -21 10 -37 38 -53
l71 -40c52 -29 94 -71 94 -143c0 -70 -57 -142 -149 -142c-129 0 -159 101 -159 160c0 30 28 30 28 30h29c19 0 31 -9 31 -31z" />
    <glyph glyph-name="t" unicode="t" horiz-adv-x="341" 
d="M295 0h-16c-104 0 -160 42 -160 160v247h-22c-28 0 -28 28 -28 28v27s0 29 28 29h22v161c0 28 28 28 28 28h34s29 0 29 -28v-161h77c29 0 29 -28 29 -28v-27s0 -29 -29 -29h-77v-247c0 -58 28 -76 69 -76h16c28 0 28 -27 28 -27v-28s0 -29 -28 -29z" />
    <glyph glyph-name="u" unicode="u" horiz-adv-x="451" 
d="M407 471v-442c0 -17 -12 -29 -27 -29h-35c-15 0 -27 12 -27 29v9c-21 -30 -61 -45 -94 -45c-94 0 -159 67 -159 176v302c0 17 12 29 27 29h37c15 0 27 -12 27 -29v-309c0 -61 38 -85 77 -85c49 0 83 29 83 85v309c0 17 12 29 27 29h37c15 0 27 -12 27 -29z" />
    <glyph glyph-name="v" unicode="v" horiz-adv-x="395" 
d="M155 29l-129 442c-5 19 8 29 25 29h44c15 0 27 -11 32 -29l88 -359l86 359c5 18 17 29 32 29h44c17 0 30 -10 25 -29l-128 -440c-5 -19 -13 -31 -28 -31h-61c-15 0 -25 10 -30 29z" />
    <glyph glyph-name="w" unicode="w" horiz-adv-x="626" 
d="M312 500h51c15 0 27 -11 32 -29l83 -358l63 358c5 18 17 29 32 29h44c17 0 30 -10 25 -29l-100 -442c-5 -19 -15 -29 -30 -29h-68c-15 0 -24 12 -28 31l-79 327l-78 -327c-4 -19 -13 -31 -28 -31h-67c-15 0 -25 10 -30 29l-101 442c-5 19 8 29 25 29h44
c15 0 27 -11 32 -29l63 -358l83 358c5 18 17 29 32 29z" />
    <glyph glyph-name="x" unicode="x" horiz-adv-x="396" 
d="M295 29l-82 149l-79 -149c-12 -24 -23 -29 -38 -29h-39c-23 0 -35 10 -25 29l132 230l-108 213c-10 19 2 29 25 29h27c15 0 25 -4 38 -29l72 -142l74 141c13 24 29 29 44 29h26c23 0 35 -10 25 -29l-117 -224l124 -218c10 -19 -2 -29 -25 -29h-30c-15 0 -32 5 -44 29z
" />
    <glyph glyph-name="z" unicode="z" horiz-adv-x="434" 
d="M83 500h285c17 0 29 -13 29 -28v-25c0 -15 -11 -26 -14 -31l-221 -332h217c17 0 29 -12 29 -27v-29c0 -15 -12 -28 -29 -28h-306c-17 0 -29 13 -29 28v25c0 15 11 26 14 31l220 332h-195c-17 0 -29 12 -29 27v29c0 15 12 28 29 28z" />
    <glyph glyph-name="y" unicode="y" horiz-adv-x="396" 
d="M73 -198c-29 0 -29 30 -29 30v35s0 30 29 30c31 0 63 7 71 38l16 65h-5c-8 0 -15 7 -18 15l-109 456c-5 19 8 29 25 29h44c15 0 27 -11 32 -29l69 -342h2l88 342c5 18 17 29 32 29h44c17 0 30 -10 25 -29l-156 -551c-27 -98 -80 -118 -160 -118z" />
    <glyph glyph-name="e" unicode="e" horiz-adv-x="452" 
d="M240 507c91 0 161 -55 161 -144v-67c0 -25 -13 -49 -48 -55l-197 -37v-49c1 -42 30 -78 77 -78c58 0 77 38 77 76c0 30 29 30 29 30h31c19 0 31 -9 31 -31c0 -88 -64 -159 -168 -159c-99 0 -168 69 -168 162v177c0 100 62 175 175 175zM235 423c-58 0 -79 -38 -79 -83
v-50l154 30v43c0 40 -31 60 -75 60z" />
    <glyph glyph-name="A" unicode="A" horiz-adv-x="548" 
d="M276 595h-2l-64 -252h129zM233 700h83s23 0 30 -24l180 -644c9 -32 -25 -32 -25 -32h-46c-11 0 -23 8 -28 24l-63 224h-178l-66 -224c-5 -16 -17 -24 -27 -24h-47s-33 0 -24 32l182 644c7 24 29 24 29 24z" />
    <glyph glyph-name="B" unicode="B" horiz-adv-x="510" 
d="M177 604v-190h64c76 0 121 34 121 95c0 63 -33 95 -105 95h-80zM80 700h177c141 0 203 -81 203 -191c0 -65 -30 -110 -62 -134c59 -32 80 -92 80 -163c0 -107 -61 -212 -211 -212h-187v700zM177 322v-228h90c68 0 114 41 114 116c0 92 -54 112 -122 112h-82z" />
    <glyph glyph-name="C" unicode="C" horiz-adv-x="522" 
d="M279 707c130 0 187 -77 201 -170c2 -12 -1 -28 -20 -34l-35 -9c-19 -5 -38 5 -41 22c-6 59 -41 96 -105 96c-77 0 -112 -40 -112 -133v-259c0 -93 35 -132 112 -132c68 0 108 40 108 132c0 29 28 29 28 29h40s29 0 29 -29c0 -127 -56 -227 -205 -227
c-138 0 -209 95 -209 227v259c0 132 71 228 209 228z" />
    <glyph glyph-name="D" unicode="D" horiz-adv-x="539" 
d="M80 700h200c149 0 206 -100 206 -226v-248c0 -126 -57 -226 -206 -226h-200v700zM177 606v-512h103c68 0 109 41 109 132v248c0 91 -41 132 -109 132h-103z" />
    <glyph glyph-name="E" unicode="E" horiz-adv-x="503" 
d="M80 700h353c29 0 29 -28 29 -28v-39s0 -28 -28 -28h-257v-205h190c29 0 29 -28 29 -28v-39s0 -28 -28 -28h-191v-210h256c29 0 29 -28 29 -28v-39s0 -28 -28 -28h-354v700z" />
    <glyph glyph-name="F" unicode="F" horiz-adv-x="483" 
d="M80 700h334c29 0 29 -28 29 -28v-41s-3 -26 -29 -26h-237v-205h171c29 0 29 -28 29 -28v-41s-3 -26 -29 -26h-171v-278c-3 -27 -29 -27 -29 -27h-39s-29 0 -29 29v671z" />
    <glyph glyph-name="G" unicode="G" horiz-adv-x="517" 
d="M262 707c130 0 187 -76 201 -168c2 -12 -1 -29 -20 -34l-38 -10c-19 -5 -34 6 -37 22c-9 58 -42 95 -106 95c-75 0 -105 -39 -105 -132v-259c0 -93 35 -133 112 -133c68 0 108 41 108 133v38h-123c-29 0 -29 29 -29 29v37s0 29 29 29h191s29 0 29 -29v-104
c0 -127 -56 -228 -205 -228c-138 0 -209 96 -209 228v259c0 132 64 227 202 227z" />
    <glyph glyph-name="H" unicode="H" horiz-adv-x="557" 
d="M108 700h39s30 0 30 -29v-261h221v261c0 29 28 29 28 29h39s30 0 30 -29v-642c0 -29 -29 -29 -29 -29h-39s-29 0 -29 29v286h-221v-286c0 -29 -29 -29 -29 -29h-39s-29 0 -29 29v642c0 29 28 29 28 29z" />
    <glyph glyph-name="I" unicode="I" horiz-adv-x="221" 
d="M108 700h39s30 0 30 -29v-642c0 -29 -29 -29 -29 -29h-39s-29 0 -29 29v642c0 29 28 29 28 29z" />
    <glyph glyph-name="J" unicode="J" horiz-adv-x="350" 
d="M238 700h40s29 0 29 -29v-450c0 -129 -83 -228 -232 -228c-30 0 -30 29 -30 29v36s0 30 30 30c79 0 135 33 135 133v450c0 29 28 29 28 29z" />
    <glyph glyph-name="K" unicode="K" horiz-adv-x="545" 
d="M108 700h40s29 0 29 -29v-258l189 267c10 20 31 20 31 20h45s46 0 22 -41l-181 -260l140 -250c20 -34 34 -54 58 -54h5c30 0 30 -30 30 -30v-35s0 -30 -30 -30h-20c-61 0 -94 32 -137 107l-116 200l-36 -51v-227c0 -29 -28 -29 -28 -29h-41s-28 0 -28 29v642
c0 29 28 29 28 29z" />
    <glyph glyph-name="L" unicode="L" horiz-adv-x="428" 
d="M108 700h40s29 0 29 -29v-576h199c30 0 30 -28 30 -28v-38s0 -29 -30 -29h-296v671c0 29 28 29 28 29z" />
    <glyph glyph-name="M" unicode="M" horiz-adv-x="606" 
d="M109 700h59s20 0 31 -22l112 -262l111 262c10 22 31 22 31 22h57s30 0 30 -29v-642s0 -29 -30 -29h-37s-30 0 -30 29l10 494l-89 -224c-8 -19 -17 -21 -28 -21h-45c-12 0 -22 2 -30 21l-94 229l10 -499s0 -29 -29 -29h-39s-29 0 -29 29v642s0 29 29 29z" />
    <glyph glyph-name="N" unicode="N" horiz-adv-x="566" 
d="M109 700h60s20 0 31 -22l211 -504l-6 497s0 29 29 29h39s29 0 29 -29v-642s0 -29 -29 -29h-60s-22 0 -31 21l-210 505l5 -497s0 -29 -29 -29h-39s-29 0 -29 29v642s0 29 29 29z" />
    <glyph glyph-name="O" unicode="O" horiz-adv-x="538" 
d="M278 707c149 0 207 -101 207 -228v-259c0 -127 -58 -227 -207 -227s-208 100 -208 227v259c0 127 59 228 208 228zM278 612c-68 0 -111 -41 -111 -133v-259c0 -92 43 -132 111 -132s110 40 110 132v259c0 92 -42 133 -110 133z" />
    <glyph glyph-name="P" unicode="P" horiz-adv-x="508" 
d="M80 700h168c149 0 209 -91 209 -217v-25c0 -126 -60 -216 -209 -216h-71v-213c0 -29 -28 -29 -28 -29h-40s-29 0 -29 29v671zM177 607v-271h71c68 0 112 32 112 122v25c0 91 -44 124 -112 124h-71z" />
    <glyph glyph-name="Q" unicode="Q" horiz-adv-x="560" 
d="M278 707c149 0 208 -101 208 -228v-259c0 -48 -12 -104 -35 -128h36c27 0 29 -27 29 -27v-35s0 -30 -29 -30h-21c-42 0 -82 0 -93 12c-21 -10 -50 -19 -95 -19c-149 0 -208 100 -208 227v259c0 127 59 228 208 228zM278 612c-68 0 -110 -41 -110 -133v-259
c0 -92 42 -132 110 -132c9 0 17 0 25 2l-47 75c-24 40 26 40 26 40h36s21 0 30 -16l27 -43c8 19 13 44 13 74v259c0 92 -42 133 -110 133z" />
    <glyph glyph-name="R" unicode="R" horiz-adv-x="542" 
d="M81 700h176c149 0 209 -80 209 -208c0 -111 -42 -166 -121 -198l72 -152c18 -31 34 -47 52 -47h15c29 0 29 -30 29 -30v-35s0 -30 -29 -30h-21c-60 0 -93 31 -137 108l-78 170h-70v-249c0 -29 -28 -29 -28 -29h-40s-29 0 -29 29v671zM178 606v-233h79
c80 0 112 40 112 121c0 91 -44 112 -112 112h-79z" />
    <glyph glyph-name="S" unicode="S" horiz-adv-x="486" 
d="M249 707c121 0 186 -70 200 -164c2 -12 -1 -28 -20 -34l-35 -9c-19 -5 -36 1 -41 22c-15 63 -45 87 -104 87c-76 0 -101 -46 -101 -84c0 -33 10 -63 42 -80l172 -90c61 -32 96 -97 96 -163c0 -113 -76 -199 -209 -199c-82 0 -205 47 -205 205c0 29 29 29 29 29h40
s28 0 28 -29c0 -90 59 -110 108 -110c81 0 112 57 112 104c0 32 -14 64 -63 89l-144 74c-92 47 -103 121 -103 173c0 115 91 179 198 179z" />
    <glyph glyph-name="T" unicode="T" horiz-adv-x="481" 
d="M69 700h360c29 0 29 -28 29 -28v-38s0 -29 -29 -29h-132v-576c0 -29 -28 -29 -28 -29h-40s-29 0 -29 29v576h-131c-29 0 -29 28 -29 28v38s0 29 29 29z" />
    <glyph glyph-name="U" unicode="U" horiz-adv-x="524" 
d="M93 700h40s29 0 29 -29v-423c0 -123 35 -160 111 -160c68 0 109 37 109 160v423c0 29 28 29 28 29h40s29 0 29 -29v-418c0 -139 -57 -260 -206 -260c-145 0 -208 118 -208 260v418c0 29 28 29 28 29z" />
    <glyph glyph-name="V" unicode="V" horiz-adv-x="535" 
d="M71 700h45c11 0 23 -8 28 -24l133 -551h7l131 551c5 16 17 24 28 24h45s33 0 25 -32l-161 -644c-6 -24 -30 -24 -30 -24h-84s-25 0 -31 25l-161 643c-8 32 25 32 25 32z" />
    <glyph glyph-name="W" unicode="W" horiz-adv-x="753" 
d="M75 700h45c11 0 24 -8 28 -24l98 -551l92 497c6 29 20 29 31 29h42c9 0 26 0 32 -29l91 -497l99 552c4 16 17 24 28 24h45s32 0 25 -32l-123 -644c-5 -25 -31 -25 -31 -25h-84s-26 0 -33 28l-70 433l-71 -436c-5 -25 -31 -25 -31 -25h-85s-24 0 -30 25l-123 643
c-7 32 25 32 25 32z" />
    <glyph glyph-name="X" unicode="X" horiz-adv-x="571" 
d="M118 700h44c11 0 20 0 30 -17l115 -212l114 212c9 17 19 17 30 17h44c21 0 43 0 25 -32l-159 -293l190 -343c18 -32 -4 -32 -25 -32h-44c-11 0 -21 0 -30 17l-148 266l-145 -266c-10 -17 -19 -17 -30 -17h-44c-21 0 -43 0 -25 32l191 349l-158 287c-18 32 4 32 25 32z
" />
    <glyph glyph-name="Y" unicode="Y" horiz-adv-x="539" 
d="M74 700h55c11 0 23 -8 28 -24l138 -346h10l123 346c5 16 17 24 28 24h48c12 0 36 0 25 -32l-234 -644c-9 -24 -17 -24 -28 -24h-46c-12 0 -36 0 -25 32l65 178h-9c-8 0 -15 7 -18 15l-178 443c-12 27 -1 32 18 32z" />
    <glyph glyph-name="Z" unicode="Z" horiz-adv-x="537" 
d="M94 700h359s26 -3 26 -29v-44c0 -7 0 -10 -5 -21l-293 -511h279c29 0 29 -28 29 -28v-41s-3 -26 -29 -26h-366c-26 0 -29 26 -29 26v41c0 8 0 11 5 21l294 517h-270c-29 0 -29 28 -29 28v41s3 26 29 26z" />
    <glyph glyph-name="a" unicode="a" horiz-adv-x="431" 
d="M183 197c-40 -9 -47 -38 -47 -56c0 -32 26 -64 64 -64c52 0 88 49 88 95v50zM216 507c86 0 163 -57 163 -177v-301c0 -17 -12 -29 -27 -29h-35c-15 0 -27 12 -27 29v9c-18 -27 -61 -45 -100 -45c-79 0 -145 63 -145 144c0 78 30 121 124 144l119 29v42
c0 42 -31 71 -72 71c-46 0 -67 -23 -67 -52c0 -18 -12 -29 -27 -29h-37c-15 0 -27 11 -27 29c0 83 67 136 158 136z" />
    <glyph glyph-name="dieresis" unicode="&#xa8;" horiz-adv-x="343" 
d="M74 690h46c15 0 27 -12 27 -29v-42c0 -17 -12 -29 -27 -29h-46c-15 0 -27 12 -27 29v42c0 17 12 29 27 29zM270 690h46c15 0 27 -12 27 -29v-42c0 -17 -12 -29 -27 -29h-46c-15 0 -27 12 -27 29v42c0 17 12 29 27 29z" />
    <glyph glyph-name="period" unicode="." horiz-adv-x="169" 
d="M71 104h50c15 0 27 -12 27 -29v-46c0 -17 -12 -29 -27 -29h-50c-15 0 -27 12 -27 29v46c0 17 12 29 27 29z" />
    <glyph glyph-name="b" unicode="b" horiz-adv-x="459" 
d="M97 700h37c15 0 27 -12 27 -29v-201c14 21 50 37 92 37c94 0 153 -59 153 -175v-169c0 -96 -62 -170 -157 -170c-37 0 -73 16 -90 45v-9c0 -17 -12 -29 -27 -29h-35c-15 0 -27 12 -27 29v642c0 17 12 29 27 29zM240 423c-59 0 -80 -44 -80 -84v-181c0 -47 33 -81 84 -81
c42 0 71 25 71 81v181c0 49 -21 84 -75 84z" />
    <glyph glyph-name="c" unicode="c" horiz-adv-x="451" 
d="M234 507c66 0 141 -27 158 -119c2 -13 3 -25 -21 -32l-34 -8c-12 -3 -29 -4 -34 22c-6 30 -23 53 -69 53c-53 0 -78 -31 -78 -103v-148c0 -66 28 -95 78 -95c52 0 76 39 76 73c0 30 29 30 29 30h31c19 0 31 -9 31 -31c0 -119 -98 -156 -167 -156c-110 0 -169 61 -169 179
v148c0 137 88 187 169 187z" />
    <glyph glyph-name="d" unicode="d" horiz-adv-x="443" 
d="M203 507c26 0 71 -12 91 -37v200c0 29 28 29 28 29h37c15 0 26 -12 26 -29v-641c0 -17 -12 -29 -27 -29h-35c-15 0 -27 12 -27 29v9c-27 -33 -55 -45 -95 -45c-94 0 -151 58 -151 169v169c0 97 43 176 153 176zM214 423c-49 0 -73 -27 -73 -85v-183c0 -61 30 -78 69 -78
c49 0 84 22 84 78v183c0 66 -44 85 -80 85z" />
    <glyph glyph-name="one" unicode="1" 
d="M422 0h-358c-29 0 -29 28 -29 28v39s0 28 28 28h132v510h-73c-29 0 -29 28 -29 28v39s0 28 28 28h142c29 0 29 -29 29 -29v-576h131c28 0 28 -28 28 -28v-39s0 -28 -29 -28z" />
    <glyph glyph-name="two" unicode="2" horiz-adv-x="432" 
d="M239 707c134 0 184 -97 184 -192c0 -61 -13 -127 -76 -206l-172 -214h216c29 0 29 -28 29 -28v-41s-3 -26 -29 -26h-316c-26 0 -29 26 -29 26v41c0 8 0 11 5 21l205 259c62 79 70 107 70 168c0 73 -37 106 -84 106c-52 0 -80 -38 -80 -99c0 -29 -31 -29 -31 -29h-39
s-28 0 -28 29c0 117 71 185 175 185z" />
    <glyph glyph-name="zero" unicode="0" horiz-adv-x="474" 
d="M242 707c123 0 183 -87 183 -209v-295c0 -122 -71 -210 -183 -210s-182 88 -182 210v295c0 122 59 209 182 209zM242 85c57 0 86 35 86 134v261c0 99 -29 132 -86 132s-85 -33 -85 -132v-261c0 -99 28 -134 85 -134z" />
    <glyph glyph-name="three" unicode="3" horiz-adv-x="462" 
d="M60 522c0 117 72 185 175 185c118 0 178 -77 178 -194c0 -47 -7 -122 -51 -157c53 -43 59 -109 59 -157c0 -128 -69 -205 -187 -205c-148 0 -184 121 -184 195c0 29 27 29 27 29h40s30 0 30 -29c0 -66 33 -101 87 -101c50 0 90 21 90 111c0 86 -40 114 -75 114h-21
c-30 0 -30 30 -30 30v36s0 28 30 28h22c34 0 66 21 66 106c0 79 -37 99 -81 99c-53 0 -78 -29 -78 -90c0 -29 -30 -29 -30 -29h-39s-28 0 -28 29z" />
    <glyph glyph-name="seven" unicode="7" horiz-adv-x="403" 
d="M58 37l180 421l36 85c11 27 16 47 17 62h-244c-29 0 -29 28 -29 28v39s0 28 28 28h314c28 0 28 -28 28 -28v-47c0 -21 -4 -62 -30 -120c-13 -32 -205 -485 -205 -485c-10 -20 -22 -20 -29 -20h-42c-14 0 -42 0 -24 37z" />
    <glyph glyph-name="five" unicode="5" horiz-adv-x="447" 
d="M137 604v-158c29 15 66 18 91 18c123 0 184 -93 184 -199v-59c0 -124 -69 -213 -184 -213c-116 0 -188 75 -188 205c0 29 28 29 28 29h41s28 0 28 -29c0 -88 33 -110 91 -110c49 0 87 29 87 118v57c0 75 -31 109 -87 109c-46 0 -91 -13 -91 -48c0 -29 -28 -29 -28 -29
h-41s-28 0 -28 29v346c0 29 28 29 28 29h280c28 0 28 -28 28 -28v-38s0 -29 -28 -29h-211z" />
    <glyph glyph-name="six" unicode="6" horiz-adv-x="456" 
d="M149 495v-82c30 28 68 33 93 33c123 0 182 -93 182 -199v-40c0 -124 -65 -213 -191 -213c-114 0 -181 90 -181 213v288c0 140 79 212 187 212c115 0 183 -84 183 -188c0 -31 -28 -31 -28 -31h-39s-28 0 -28 31c0 67 -35 93 -88 93c-50 0 -90 -21 -90 -117zM149 242v-32
c0 -90 37 -121 84 -121c59 0 94 31 94 121v32c0 75 -29 109 -84 109c-25 0 -94 -4 -94 -109z" />
    <glyph glyph-name="eight" unicode="8" horiz-adv-x="450" 
d="M236 416c35 0 77 17 77 102c0 79 -35 95 -77 95c-55 0 -80 -30 -80 -95c0 -85 43 -102 80 -102zM236 88c49 0 87 31 87 110c0 87 -38 124 -87 124c-51 0 -89 -37 -89 -124c0 -79 38 -110 89 -110zM411 518c0 -49 -14 -109 -57 -148c65 -44 66 -121 66 -172
c0 -75 -41 -205 -184 -205c-145 0 -186 130 -186 205c0 47 12 126 65 171c-42 38 -57 100 -57 149c0 74 29 189 178 189c147 0 175 -115 175 -189z" />
    <glyph glyph-name="nine" unicode="9" horiz-adv-x="460" 
d="M247 707c115 0 183 -92 183 -217v-279c0 -133 -73 -218 -190 -218c-118 0 -188 86 -188 194c0 30 29 30 29 30h40s28 0 28 -30c0 -70 40 -100 91 -100c58 0 92 43 92 124v69c-25 -18 -59 -27 -90 -27c-127 0 -192 95 -192 204v33c0 126 78 217 197 217zM242 347
c55 0 90 32 90 102v41c0 90 -38 123 -85 123c-52 0 -100 -33 -100 -123v-31c0 -76 36 -112 95 -112z" />
    <glyph glyph-name="four" unicode="4" horiz-adv-x="459" 
d="M122 252h145v313zM364 252h37c30 0 30 -28 30 -28v-37s0 -30 -31 -30h-36v-127c0 -30 -29 -30 -29 -30h-38s-30 0 -30 30v127h-217c-31 0 -31 30 -31 30v30c0 12 0 30 6 40l203 423c12 18 27 20 27 20h79s30 0 30 -30v-418z" />
    <glyph glyph-name="exclam" unicode="!" horiz-adv-x="139" 
d="M59 104h50c15 0 27 -12 27 -29v-46c0 -17 -12 -29 -27 -29h-50c-15 0 -27 12 -27 29v46c0 17 12 29 27 29zM63 700h39s30 0 30 -29v-484c0 -29 -29 -29 -29 -29h-39s-29 0 -29 29v484c0 29 28 29 28 29z" />
    <glyph glyph-name="quotedbl" unicode="&#x22;" horiz-adv-x="271" 
d="M73 529c-10 0 -17 9 -21 29l-13 113c0 17 11 29 25 29h42c14 0 25 -12 25 -29l-13 -113c-2 -20 -11 -29 -21 -29h-24zM213 529c-10 0 -17 9 -21 29l-13 113c0 17 11 29 25 29h42c14 0 25 -12 25 -29l-13 -113c-2 -20 -11 -29 -21 -29h-24z" />
    <glyph glyph-name="numbersign" unicode="#" horiz-adv-x="638" 
d="M66 197h98l32 130h-113c-36 0 -29 28 -29 28l8 31s3 25 32 25h123l30 123c7 28 32 25 32 25h32s29 0 20 -35l-28 -113h125l31 123c7 28 32 25 32 25h32s29 0 20 -35l-28 -113h105c36 0 29 -28 29 -28l-8 -31s-3 -25 -32 -25h-114l-32 -130h129c36 0 29 -28 29 -28l-8 -31
s-3 -25 -32 -25h-139l-29 -121c-7 -28 -32 -25 -32 -25h-32s-29 0 -20 35l27 111h-126l-29 -121c-7 -28 -32 -25 -32 -25h-32s-29 0 -20 35l27 111h-89c-36 0 -29 28 -29 28l8 31s3 25 32 25zM283 327l-32 -130h125l32 130h-125z" />
    <glyph glyph-name="percent" unicode="%" horiz-adv-x="585" 
d="M474 671l-217 -642c-8 -26 -18 -29 -39 -29h-27c-23 0 -31 9 -25 29l216 642c8 26 18 29 39 29h28c23 0 31 -9 25 -29zM164 597c-27 0 -33 -20 -33 -40v-80c0 -20 6 -39 32 -39c27 0 34 19 34 39v80c0 20 -6 40 -33 40zM165 685c73 0 106 -52 106 -116v-106
c0 -64 -53 -110 -107 -110c-55 0 -106 44 -106 110v106c0 64 36 116 107 116zM463 244c-27 0 -33 -20 -33 -40v-80c0 -20 6 -39 32 -39c27 0 34 19 34 39v80c0 20 -6 40 -33 40zM464 332c73 0 106 -52 106 -116v-106c0 -64 -53 -110 -107 -110c-55 0 -106 44 -106 110v106
c0 64 36 116 107 116z" />
    <glyph glyph-name="ampersand" unicode="&#x26;" horiz-adv-x="590" 
d="M213 300l-28 -25c-52 -46 -60 -66 -60 -111c0 -36 30 -87 91 -87c30 0 58 11 90 49l11 13zM455 239h23c17 0 29 -13 29 -28v-29c0 -15 -12 -27 -29 -27c-21 -1 -30 0 -47 -24c22 -37 37 -47 68 -47h12c17 0 29 -13 29 -28v-29c0 -15 -12 -27 -29 -27h-16
c-50 0 -82 -5 -128 65l-8 -9c-43 -48 -82 -63 -142 -63c-116 0 -178 83 -179 171c-1 78 31 123 72 159l57 51l-20 33c-79 131 15 236 126 236c72 0 151 -38 151 -140c0 -18 -12 -29 -27 -29h-37c-15 0 -27 11 -27 29c0 21 -13 58 -58 58c-55 0 -86 -54 -57 -99l168 -261
c24 24 34 38 69 38z" />
    <glyph glyph-name="quotesingle" unicode="'" horiz-adv-x="139" 
d="M73 529c-10 0 -17 9 -21 29l-13 113c0 17 11 29 25 29h42c14 0 25 -12 25 -29l-13 -113c-2 -20 -11 -29 -21 -29h-24z" />
    <glyph glyph-name="parenleft" unicode="(" horiz-adv-x="308" 
d="M50 287v136c0 252 75 378 149 439c23 17 42 -7 42 -7l23 -30s17 -22 -5 -40c-64 -57 -102 -146 -102 -362v-136c0 -216 38 -305 102 -362c22 -18 5 -40 5 -40l-23 -30s-19 -24 -42 -7c-74 61 -149 187 -149 439z" />
    <glyph glyph-name="parenright" unicode=")" horiz-adv-x="348" 
d="M281 423v-136c0 -252 -75 -378 -149 -439c-23 -17 -42 7 -42 7l-23 30s-17 22 5 40c64 57 102 146 102 362v136c0 216 -38 305 -102 362c-22 18 -5 40 -5 40l23 30s19 24 42 7c74 -61 149 -187 149 -439z" />
    <glyph glyph-name="slash" unicode="/" horiz-adv-x="328" 
d="M344 706l-242 -712c-8 -26 -18 -29 -39 -29h-27c-23 0 -31 9 -25 29l241 712c8 26 18 29 39 29h28c23 0 31 -9 25 -29z" />
    <glyph glyph-name="less" unicode="&#x3c;" horiz-adv-x="326" 
 />
    <glyph glyph-name="at" unicode="@" horiz-adv-x="704" 
d="M333 -162c-190 41 -278 146 -278 344v170c0 101 43 306 311 306c159 0 311 -102 311 -291v-99c0 -162 -72 -295 -261 -295c-138 0 -216 86 -216 167c0 78 24 124 118 147l119 29v42c0 42 -31 71 -72 71c-46 0 -67 -23 -67 -52c0 -18 -12 -29 -27 -29h-37
c-15 0 -27 11 -27 29c0 83 67 136 158 136c86 0 163 -57 163 -177v-188c0 -18 -12 -29 -27 -29h-37c-15 0 -27 11 -27 29v80l-105 -25c-40 -9 -41 -41 -41 -59c0 -32 40 -80 135 -80c133 0 160 73 160 215v78c0 156 -114 217 -220 217c-169 0 -220 -124 -220 -232v-150
c0 -156 51 -230 209 -263c17 -4 25 -18 22 -33l-10 -38c-3 -15 -16 -24 -34 -20z" />
    <glyph glyph-name="grave" unicode="`" horiz-adv-x="143" 
 />
    <glyph glyph-name="guillemotleft" unicode="&#xab;" horiz-adv-x="369" 
d="M134 237l66 -121c10 -19 -2 -29 -25 -29h-22c-15 0 -29 3 -42 27l-66 123l66 123c13 24 27 27 42 27h22c23 0 35 -10 25 -29zM277 237l66 -121c10 -19 -2 -29 -25 -29h-22c-15 0 -29 3 -42 27l-66 123l66 123c13 24 27 27 42 27h22c23 0 35 -10 25 -29z" />
    <glyph glyph-name="guillemotright" unicode="&#xbb;" horiz-adv-x="370" 
d="M215 116l66 121l-66 121c-10 19 2 29 25 29h22c15 0 29 -3 42 -27l66 -123l-66 -123c-13 -24 -27 -27 -42 -27h-22c-23 0 -35 10 -25 29zM72 116l66 121l-66 121c-10 19 2 29 25 29h22c15 0 29 -3 42 -27l66 -123l-66 -123c-13 -24 -27 -27 -42 -27h-22
c-23 0 -35 10 -25 29z" />
    <glyph glyph-name="dollar" unicode="$" horiz-adv-x="485" 
d="M228 781h37c15 0 27 -12 27 -29v-48c93 -15 144 -79 157 -161c2 -12 -1 -28 -20 -34l-35 -9c-19 -5 -36 1 -41 22c-11 45 -29 70 -61 81l1 -212l69 -36c61 -32 96 -97 96 -163c0 -100 -59 -178 -164 -195v-55c0 -17 -13 -29 -28 -29h-36c-15 0 -27 12 -27 29v56
c-76 14 -159 69 -159 200c0 29 29 29 29 29h40s28 0 28 -29c0 -62 28 -91 61 -103v235l-48 25c-92 47 -103 121 -103 173c0 97 65 158 150 174v50c0 17 12 29 27 29zM298 281l-5 2v-188c49 16 68 60 68 97c0 32 -14 64 -63 89zM148 525c0 -33 10 -63 42 -80l12 -6l-1 162
c-39 -15 -53 -48 -53 -76z" />
    <glyph glyph-name="comma" unicode="," horiz-adv-x="199" 
d="M31 -106v10c0 9 7 17 21 17c31 0 40 28 40 79h-16c-15 0 -27 12 -27 29v46c0 17 12 29 27 29h50c15 0 27 -12 27 -29v-65c0 -76 -30 -133 -92 -133h-9c-14 0 -21 8 -21 17z" />
    <glyph glyph-name="semicolon" unicode=";" horiz-adv-x="184" 
d="M85 382h50c15 0 27 -12 27 -29v-46c0 -17 -12 -29 -27 -29h-50c-15 0 -27 12 -27 29v46c0 17 12 29 27 29zM40 -106v10c0 9 7 17 21 17c31 0 40 28 40 79h-16c-15 0 -27 12 -27 29v46c0 17 12 29 27 29h50c15 0 27 -12 27 -29v-65c0 -76 -30 -133 -92 -133h-9
c-14 0 -21 8 -21 17z" />
    <glyph glyph-name="colon" unicode=":" horiz-adv-x="176" 
d="M77 104h50c15 0 27 -12 27 -29v-46c0 -17 -12 -29 -27 -29h-50c-15 0 -27 12 -27 29v46c0 17 12 29 27 29zM77 382h50c15 0 27 -12 27 -29v-46c0 -17 -12 -29 -27 -29h-50c-15 0 -27 12 -27 29v46c0 17 12 29 27 29z" />
    <glyph glyph-name="Adieresis" unicode="&#xc4;" horiz-adv-x="578" 
d="M295 595h-2l-64 -252h129zM252 700h83s23 0 30 -24l180 -644c9 -32 -25 -32 -25 -32h-46c-11 0 -23 8 -28 24l-63 224h-178l-66 -224c-5 -16 -17 -24 -27 -24h-47s-33 0 -24 32l182 644c7 24 29 24 29 24zM180 870h46c15 0 27 -12 27 -29v-42c0 -17 -12 -29 -27 -29h-46
c-15 0 -27 12 -27 29v42c0 17 12 29 27 29zM376 870h46c15 0 27 -12 27 -29v-42c0 -17 -12 -29 -27 -29h-46c-15 0 -27 12 -27 29v42c0 17 12 29 27 29z" />
    <glyph glyph-name="Edieresis" unicode="&#xcb;" horiz-adv-x="492" 
d="M60 700h353c29 0 29 -28 29 -28v-39s0 -28 -28 -28h-257v-205h190c29 0 29 -28 29 -28v-39s0 -28 -28 -28h-191v-210h256c29 0 29 -28 29 -28v-39s0 -28 -28 -28h-354v700zM91 870h46c15 0 27 -12 27 -29v-42c0 -17 -12 -29 -27 -29h-46c-15 0 -27 12 -27 29v42
c0 17 12 29 27 29zM287 870h46c15 0 27 -12 27 -29v-42c0 -17 -12 -29 -27 -29h-46c-15 0 -27 12 -27 29v42c0 17 12 29 27 29z" />
    <glyph glyph-name="adieresis" unicode="&#xe4;" 
d="M171 197c-40 -9 -47 -38 -47 -56c0 -32 26 -64 64 -64c52 0 88 49 88 95v50zM204 507c86 0 163 -57 163 -177v-301c0 -17 -12 -29 -27 -29h-35c-15 0 -27 12 -27 29v9c-18 -27 -61 -45 -100 -45c-79 0 -145 63 -145 144c0 78 30 121 124 144l119 29v42
c0 42 -31 71 -72 71c-46 0 -67 -23 -67 -52c0 -18 -12 -29 -27 -29h-37c-15 0 -27 11 -27 29c0 83 67 136 158 136zM130 690h46c15 0 27 -12 27 -29v-42c0 -17 -12 -29 -27 -29h-46c-15 0 -27 12 -27 29v42c0 17 12 29 27 29zM326 690h46c15 0 27 -12 27 -29v-42
c0 -17 -12 -29 -27 -29h-46c-15 0 -27 12 -27 29v42c0 17 12 29 27 29z" />
    <glyph glyph-name="edieresis" unicode="&#xeb;" 
d="M226 507c91 0 161 -55 161 -144v-67c0 -25 -13 -49 -48 -55l-197 -37v-49c1 -42 30 -78 77 -78c58 0 77 38 77 76c0 30 29 30 29 30h31c19 0 31 -9 31 -31c0 -88 -64 -159 -168 -159c-99 0 -168 69 -168 162v177c0 100 62 175 175 175zM221 423c-58 0 -79 -38 -79 -83
v-50l154 30v43c0 40 -31 60 -75 60zM90 690h46c15 0 27 -12 27 -29v-42c0 -17 -12 -29 -27 -29h-46c-15 0 -27 12 -27 29v42c0 17 12 29 27 29zM286 690h46c15 0 27 -12 27 -29v-42c0 -17 -12 -29 -27 -29h-46c-15 0 -27 12 -27 29v42c0 17 12 29 27 29z" />
    <glyph glyph-name="Odieresis" unicode="&#xd6;" horiz-adv-x="536" 
d="M269 707c149 0 207 -101 207 -228v-259c0 -127 -58 -227 -207 -227s-208 100 -208 227v259c0 127 59 228 208 228zM269 612c-68 0 -111 -41 -111 -133v-259c0 -92 43 -132 111 -132s110 40 110 132v259c0 92 -42 133 -110 133zM140 870h46c15 0 27 -12 27 -29v-42
c0 -17 -12 -29 -27 -29h-46c-15 0 -27 12 -27 29v42c0 17 12 29 27 29zM336 870h46c15 0 27 -12 27 -29v-42c0 -17 -12 -29 -27 -29h-46c-15 0 -27 12 -27 29v42c0 17 12 29 27 29z" />
    <glyph glyph-name="odieresis" unicode="&#xf6;" horiz-adv-x="427" 
d="M221 423c62 0 77 -46 77 -101v-150c0 -48 -14 -95 -78 -95c-62 0 -76 47 -76 95v150c0 55 15 101 77 101zM220 -7h2c100 0 167 65 167 179v150c0 132 -68 185 -168 185s-168 -53 -168 -185v-150c0 -114 67 -179 167 -179zM128 690h46c15 0 27 -12 27 -29v-42
c0 -17 -12 -29 -27 -29h-46c-15 0 -27 12 -27 29v42c0 17 12 29 27 29zM324 690h46c15 0 27 -12 27 -29v-42c0 -17 -12 -29 -27 -29h-46c-15 0 -27 12 -27 29v42c0 17 12 29 27 29z" />
    <glyph glyph-name="udieresis" unicode="&#xfc;" horiz-adv-x="436" 
d="M398 471v-442c0 -17 -12 -29 -27 -29h-35c-15 0 -27 12 -27 29v9c-21 -30 -61 -45 -94 -45c-94 0 -159 67 -159 176v302c0 17 12 29 27 29h37c15 0 27 -12 27 -29v-309c0 -61 38 -85 77 -85c49 0 83 29 83 85v309c0 17 12 29 27 29h37c15 0 27 -12 27 -29zM101 690h46
c15 0 27 -12 27 -29v-42c0 -17 -12 -29 -27 -29h-46c-15 0 -27 12 -27 29v42c0 17 12 29 27 29zM297 690h46c15 0 27 -12 27 -29v-42c0 -17 -12 -29 -27 -29h-46c-15 0 -27 12 -27 29v42c0 17 12 29 27 29z" />
    <glyph glyph-name="ellipsis" unicode="&#x2026;" horiz-adv-x="464" 
d="M72 104h50c15 0 27 -12 27 -29v-46c0 -17 -12 -29 -27 -29h-50c-15 0 -27 12 -27 29v46c0 17 12 29 27 29zM243 104h50c15 0 27 -12 27 -29v-46c0 -17 -12 -29 -27 -29h-50c-15 0 -27 12 -27 29v46c0 17 12 29 27 29zM414 104h50c15 0 27 -12 27 -29v-46
c0 -17 -12 -29 -27 -29h-50c-15 0 -27 12 -27 29v46c0 17 12 29 27 29z" />
    <glyph glyph-name="Udieresis" unicode="&#xdc;" horiz-adv-x="520" 
d="M86 700h40s29 0 29 -29v-423c0 -123 35 -160 111 -160c68 0 109 37 109 160v423c0 29 28 29 28 29h40s29 0 29 -29v-418c0 -139 -57 -260 -206 -260c-145 0 -208 118 -208 260v418c0 29 28 29 28 29zM140 870h46c15 0 27 -12 27 -29v-42c0 -17 -12 -29 -27 -29h-46
c-15 0 -27 12 -27 29v42c0 17 12 29 27 29zM336 870h46c15 0 27 -12 27 -29v-42c0 -17 -12 -29 -27 -29h-46c-15 0 -27 12 -27 29v42c0 17 12 29 27 29z" />
    <glyph glyph-name="germandbls" unicode="&#xdf;" horiz-adv-x="461" 
d="M70 29v491c0 75 40 187 175 187c117 0 176 -89 176 -165c0 -55 -12 -108 -84 -137c75 -28 115 -105 115 -176c0 -116 -53 -229 -195 -229h-13c-17 0 -29 12 -29 27v29c0 15 12 28 29 28h14c72 0 106 47 106 145c0 66 -50 137 -126 137h-10c-17 1 -29 13 -29 28v29
c0 15 12 28 29 28h11c47 0 90 24 90 91c0 51 -36 79 -84 79c-51 0 -86 -33 -86 -101v-491c0 -17 -12 -29 -27 -29h-35c-15 0 -27 12 -27 29z" />
    <glyph glyph-name="Euro" unicode="&#x20ac;" horiz-adv-x="525" 
d="M242 707c123 0 183 -87 183 -209v-295c0 -122 -71 -210 -183 -210s-182 88 -182 210v295c0 122 59 209 182 209zM242 85c57 0 86 35 86 134v261c0 99 -29 132 -86 132s-85 -33 -85 -132v-261c0 -99 28 -134 85 -134z" />
    <glyph glyph-name="quotesinglbase" unicode="&#x201a;" horiz-adv-x="168" 
d="M19 -106v10c0 9 7 17 21 17c31 0 40 28 40 79h-16c-15 0 -27 12 -27 29v46c0 17 12 29 27 29h50c15 0 27 -12 27 -29v-65c0 -76 -30 -133 -92 -133h-9c-14 0 -21 8 -21 17z" />
    <glyph glyph-name="quoteright" unicode="&#x2019;" horiz-adv-x="180" 
d="M22 530v10c0 9 7 17 21 17c31 0 40 28 40 79h-16c-15 0 -27 12 -27 29v46c0 17 12 29 27 29h50c15 0 27 -12 27 -29v-65c0 -76 -30 -133 -92 -133h-9c-14 0 -21 8 -21 17z" />
    <glyph glyph-name="quotedblright" unicode="&#x201d;" horiz-adv-x="328" 
d="M167 530v10c0 9 7 17 21 17c31 0 40 28 40 79h-16c-15 0 -27 12 -27 29v46c0 17 12 29 27 29h50c15 0 27 -12 27 -29v-65c0 -76 -30 -133 -92 -133h-9c-14 0 -21 8 -21 17zM26 530v10c0 9 7 17 21 17c31 0 40 28 40 79h-16c-15 0 -27 12 -27 29v46c0 17 12 29 27 29h50
c15 0 27 -12 27 -29v-65c0 -76 -30 -133 -92 -133h-9c-14 0 -21 8 -21 17z" />
    <glyph glyph-name="quotedblbase" unicode="&#x201e;" horiz-adv-x="317" 
d="M163 -106v10c0 9 7 17 21 17c31 0 40 28 40 79h-16c-15 0 -27 12 -27 29v46c0 17 12 29 27 29h50c15 0 27 -12 27 -29v-65c0 -76 -30 -133 -92 -133h-9c-14 0 -21 8 -21 17zM22 -106v10c0 9 7 17 21 17c31 0 40 28 40 79h-16c-15 0 -27 12 -27 29v46c0 17 12 29 27 29h50
c15 0 27 -12 27 -29v-65c0 -76 -30 -133 -92 -133h-9c-14 0 -21 8 -21 17z" />
    <glyph glyph-name="quotedblleft" unicode="&#x201c;" horiz-adv-x="324" 
d="M172 785v-10c0 -9 -7 -17 -21 -17c-31 0 -40 -28 -40 -79h16c15 0 27 -12 27 -29v-46c0 -17 -12 -29 -27 -29h-50c-15 0 -27 12 -27 29v65c0 76 30 133 92 133h9c14 0 21 -8 21 -17zM313 785v-10c0 -9 -7 -17 -21 -17c-31 0 -40 -28 -40 -79h16c15 0 27 -12 27 -29v-46
c0 -17 -12 -29 -27 -29h-50c-15 0 -27 12 -27 29v65c0 76 30 133 92 133h9c14 0 21 -8 21 -17z" />
    <glyph glyph-name="quoteleft" unicode="&#x2018;" horiz-adv-x="172" 
d="M144 785v-10c0 -9 -7 -17 -21 -17c-31 0 -40 -28 -40 -79h16c15 0 27 -12 27 -29v-46c0 -17 -12 -29 -27 -29h-50c-15 0 -27 12 -27 29v65c0 76 30 133 92 133h9c14 0 21 -8 21 -17z" />
    <glyph glyph-name="endash" unicode="&#x2013;" horiz-adv-x="408" 
d="M64 310h309c17 0 29 -13 29 -28v-29c0 -15 -12 -27 -29 -27h-309c-17 0 -29 12 -29 27v29c0 15 12 28 29 28z" />
    <glyph glyph-name="emdash" unicode="&#x2014;" horiz-adv-x="546" 
d="M64 310h447c17 0 29 -13 29 -28v-29c0 -15 -12 -27 -29 -27h-447c-17 0 -29 12 -29 27v29c0 15 12 28 29 28z" />
    <glyph glyph-name="hyphen" unicode="-" horiz-adv-x="307" 
d="M81 310h173c17 0 29 -13 29 -28v-29c0 -15 -12 -27 -29 -27h-173c-17 0 -29 12 -29 27v29c0 15 12 28 29 28z" />
    <glyph glyph-name="plus" unicode="+" horiz-adv-x="314" 
d="M38 310h97v96c0 17 13 29 28 29h29c15 0 27 -12 27 -29v-96h95c17 0 29 -13 29 -28v-29c0 -15 -12 -27 -29 -27h-95v-96c0 -17 -12 -29 -27 -29h-29c-15 0 -28 12 -28 29v96h-97c-17 0 -29 12 -29 27v29c0 15 12 28 29 28z" />
    <glyph glyph-name="underscore" unicode="_" horiz-adv-x="526" 
d="M64 -25h437c17 0 29 -13 29 -28v-20c0 -15 -12 -27 -29 -27h-437c-17 0 -29 12 -29 27v20c0 15 12 28 29 28z" />
    <glyph glyph-name="equal" unicode="=" horiz-adv-x="485" 
d="M94 394h332c17 0 29 -13 29 -28v-29c0 -15 -12 -27 -29 -27h-332c-17 0 -29 12 -29 27v29c0 15 12 28 29 28zM94 225h332c17 0 29 -13 29 -28v-29c0 -15 -12 -27 -29 -27h-332c-17 0 -29 12 -29 27v29c0 15 12 28 29 28z" />
    <glyph glyph-name="question" unicode="?" horiz-adv-x="433" 
d="M190 104h50c15 0 27 -12 27 -29v-46c0 -17 -12 -29 -27 -29h-50c-15 0 -27 12 -27 29v46c0 17 12 29 27 29zM264 269v-82c0 -29 -31 -29 -31 -29h-39s-28 0 -28 29v82c0 37 6 78 30 107l67 80c21 26 29 48 29 81c0 59 -26 84 -84 84c-71 0 -80 -38 -80 -99
c0 -29 -31 -29 -31 -29h-39s-28 0 -28 29c0 117 71 185 175 185c134 0 184 -81 184 -170c0 -39 -4 -76 -33 -111l-77 -93c-15 -17 -15 -32 -15 -64z" />
  </font>
</defs>
</svg>
